<?xml version="1.0" encoding="UTF-8"?><svg id="Layer_2" xmlns="http://www.w3.org/2000/svg" xmlns:xlink="http://www.w3.org/1999/xlink" viewBox="0 0 118.54 32"><defs><style>.cls-1{clip-path:url(#clippath);}.cls-2{fill:none;}.cls-3{fill:#231f20;}</style><clipPath id="clippath"><rect class="cls-2" width="15.27" height="31.85"/></clipPath></defs><g id="Layer_1-2"><g class="cls-1"><g><path class="cls-3" d="M15.78,1.05c8.29,0,15.03,6.74,15.03,15.03s-6.74,15.03-15.03,15.03S.75,24.37,.75,16.08,7.49,1.05,15.78,1.05m0-.75C7.07,.3,0,7.37,0,16.08s7.07,15.78,15.78,15.78,15.78-7.07,15.78-15.78S24.5,.3,15.78,.3h0Z"/><path class="cls-3" d="M15.78,3.51c6.93,0,12.58,5.64,12.58,12.58s-5.64,12.58-12.58,12.58S3.21,23.02,3.21,16.08,8.85,3.51,15.78,3.51m0-.81c-7.4,0-13.39,5.99-13.39,13.39s5.99,13.39,13.39,13.39,13.39-5.99,13.39-13.39S23.18,2.69,15.78,2.69h0Z"/><path class="cls-3" d="M15.78,5.96c5.58,0,10.12,4.54,10.12,10.12s-4.54,10.12-10.12,10.12-10.12-4.54-10.12-10.12S10.2,5.96,15.78,5.96m0-.88c-6.07,0-11,4.92-11,11s4.92,11,11,11,11-4.92,11-11S21.86,5.09,15.78,5.09h0Z"/><path class="cls-3" d="M15.78,8.42c4.23,0,7.66,3.44,7.66,7.66s-3.44,7.67-7.66,7.67-7.66-3.44-7.66-7.67,3.44-7.66,7.66-7.66m0-.94c-4.75,0-8.61,3.85-8.61,8.61s3.85,8.61,8.61,8.61,8.61-3.85,8.61-8.61-3.85-8.61-8.61-8.61h0Z"/><path class="cls-3" d="M15.78,10.88c2.87,0,5.21,2.34,5.21,5.21s-2.34,5.21-5.21,5.21-5.21-2.34-5.21-5.21,2.34-5.21,5.21-5.21m0-1.01c-3.43,0-6.22,2.78-6.22,6.22s2.78,6.22,6.22,6.22,6.22-2.78,6.22-6.22-2.78-6.22-6.22-6.22h0Z"/></g></g><g><g><path class="cls-3" d="M17.51,31.85v-10.36h4.59c.64,0,1.22,.15,1.75,.44,.52,.29,.93,.68,1.24,1.18,.3,.49,.45,1.06,.45,1.69s-.15,1.19-.45,1.7c-.3,.51-.71,.91-1.24,1.21-.52,.3-1.11,.44-1.75,.44h-2.44v3.72h-2.15Zm2.15-5.52h2.34c.27,0,.5-.06,.7-.18,.2-.12,.36-.3,.47-.52,.11-.22,.16-.47,.16-.75,0-.3-.06-.55-.19-.77-.13-.22-.32-.39-.56-.51-.25-.12-.53-.19-.86-.19h-2.06v2.92Zm3.73,5.52l-2.64-4.68,2.28-.37,2.93,5.06h-2.58Z"/><path class="cls-3" d="M31.3,32c-.85,0-1.59-.17-2.22-.52-.63-.35-1.13-.82-1.48-1.42-.36-.6-.53-1.29-.53-2.07,0-.6,.1-1.15,.3-1.66,.2-.5,.47-.94,.83-1.31s.78-.66,1.27-.86,1.02-.3,1.59-.3c.53,0,1.03,.1,1.48,.29,.45,.19,.85,.46,1.18,.81,.33,.35,.58,.76,.76,1.24,.18,.47,.26,.99,.24,1.55v.65h-6.31l-.34-1.29h4.9l-.24,.27v-.33c-.02-.27-.11-.51-.26-.73s-.35-.38-.58-.5c-.24-.12-.5-.18-.8-.18-.43,0-.8,.08-1.1,.25-.3,.17-.53,.41-.69,.74s-.24,.72-.24,1.18,.1,.88,.3,1.23c.2,.35,.49,.61,.86,.81,.37,.19,.81,.29,1.31,.29,.35,0,.66-.05,.95-.16,.29-.11,.59-.3,.92-.56l1.01,1.41c-.29,.26-.6,.47-.95,.64-.35,.17-.7,.3-1.07,.39-.37,.09-.73,.13-1.08,.13Z"/><path class="cls-3" d="M39.96,32c-.75,0-1.42-.18-2.01-.53s-1.06-.84-1.4-1.45c-.34-.61-.51-1.31-.51-2.09s.17-1.46,.51-2.08c.34-.62,.81-1.1,1.4-1.46,.59-.35,1.26-.53,2.01-.53,.7,0,1.34,.13,1.92,.38,.58,.26,1.04,.61,1.36,1.07l-1.15,1.39c-.14-.19-.31-.36-.52-.51-.21-.15-.43-.27-.67-.36-.24-.09-.49-.13-.75-.13-.4,0-.76,.1-1.07,.29-.31,.19-.56,.46-.73,.79s-.27,.72-.27,1.15,.09,.8,.27,1.13c.18,.33,.43,.6,.75,.8,.32,.2,.67,.3,1.07,.3,.26,0,.5-.04,.73-.11s.44-.18,.64-.33,.39-.33,.56-.53l1.14,1.39c-.34,.42-.8,.77-1.39,1.03s-1.22,.39-1.88,.39Z"/><path class="cls-3" d="M48.52,32c-.8,0-1.51-.18-2.14-.53-.63-.35-1.12-.83-1.48-1.44-.36-.61-.54-1.31-.54-2.1s.18-1.49,.54-2.09c.36-.61,.85-1.09,1.48-1.44,.63-.35,1.34-.53,2.14-.53s1.5,.18,2.12,.53c.63,.36,1.12,.84,1.47,1.44,.35,.61,.53,1.31,.53,2.09s-.18,1.49-.53,2.1c-.36,.61-.85,1.09-1.47,1.44-.63,.35-1.33,.53-2.12,.53Zm0-1.84c.38,0,.73-.1,1.04-.29,.31-.19,.55-.46,.72-.8s.26-.72,.26-1.15-.09-.82-.26-1.16-.41-.61-.72-.8c-.31-.19-.65-.29-1.04-.29s-.75,.1-1.05,.3c-.31,.2-.55,.46-.73,.8s-.26,.72-.25,1.15c0,.42,.07,.81,.25,1.15s.42,.61,.73,.8c.31,.19,.66,.29,1.05,.29Z"/><path class="cls-3" d="M54.53,31.85v-7.83h2.03l.07,2.52-.36-.52c.12-.4,.31-.77,.58-1.1,.27-.33,.58-.59,.94-.78s.74-.28,1.13-.28c.17,0,.33,.01,.49,.04,.16,.03,.29,.06,.4,.1l-.56,2.31c-.12-.06-.26-.11-.43-.16-.17-.04-.34-.07-.52-.07-.24,0-.46,.04-.66,.13s-.38,.2-.53,.35c-.15,.15-.26,.33-.35,.54s-.13,.43-.13,.68v4.06h-2.12Z"/><path class="cls-3" d="M64.05,32c-.68,0-1.29-.18-1.84-.53-.54-.35-.97-.83-1.28-1.44-.31-.61-.47-1.31-.47-2.11s.16-1.48,.47-2.09,.73-1.1,1.27-1.45c.54-.35,1.15-.53,1.84-.53,.37,0,.72,.06,1.06,.17,.34,.11,.65,.27,.92,.47,.27,.2,.49,.42,.66,.66,.17,.24,.26,.5,.28,.76l-.53,.09v-5.11h2.1v10.96h-1.98l-.09-1.81,.41,.04c-.02,.25-.11,.48-.27,.71s-.37,.43-.63,.61-.56,.33-.89,.43c-.33,.1-.68,.16-1.04,.16Zm.47-1.75c.39,0,.74-.1,1.04-.3,.3-.2,.53-.47,.7-.81,.17-.35,.25-.75,.25-1.21s-.08-.86-.25-1.21c-.17-.35-.4-.62-.7-.81-.3-.19-.64-.29-1.04-.29s-.74,.1-1.03,.29c-.29,.19-.52,.46-.68,.81-.16,.35-.24,.75-.24,1.21s.08,.87,.24,1.21c.16,.35,.39,.62,.68,.81,.29,.2,.63,.3,1.03,.3Z"/><path class="cls-3" d="M73.51,32c-.73,0-1.38-.12-1.95-.36-.57-.24-1.02-.57-1.37-1l1.3-1.13c.31,.33,.65,.56,1.02,.7,.37,.14,.75,.21,1.13,.21,.15,0,.28-.02,.41-.05,.12-.03,.23-.08,.32-.15,.09-.06,.16-.14,.2-.24,.04-.09,.07-.19,.07-.3,0-.22-.09-.39-.27-.52-.1-.05-.25-.11-.46-.18s-.47-.16-.8-.24c-.5-.13-.93-.28-1.28-.45-.35-.17-.63-.37-.84-.58-.18-.21-.31-.43-.41-.67-.09-.24-.14-.51-.14-.81,0-.36,.08-.68,.24-.97,.16-.29,.38-.54,.66-.75s.6-.37,.97-.48c.37-.11,.75-.17,1.15-.17s.8,.05,1.18,.15c.38,.1,.74,.24,1.07,.42,.33,.18,.62,.4,.87,.64l-1.13,1.24c-.18-.17-.38-.32-.6-.46-.22-.14-.45-.25-.69-.33-.24-.08-.45-.12-.64-.12-.17,0-.32,.02-.45,.04s-.24,.07-.33,.13c-.09,.06-.16,.14-.2,.23-.04,.09-.07,.2-.07,.3s.03,.21,.08,.31,.13,.18,.23,.25c.11,.06,.27,.13,.48,.21,.21,.08,.5,.17,.87,.27,.47,.13,.88,.27,1.21,.43s.59,.34,.79,.55c.17,.18,.29,.38,.37,.61s.12,.48,.12,.75c0,.48-.14,.92-.41,1.3-.27,.38-.64,.68-1.12,.89-.47,.21-1.01,.32-1.6,.32Z"/></g><g><path class="cls-3" d="M28.59,18.75c0,.14-.04,.28-.12,.43s-.23,.23-.44,.23h-3.62c-.2,0-.38-.06-.54-.18s-.23-.3-.23-.54v-2.94c0-.83-.11-1.48-.33-1.96s-.58-.81-1.06-.99v6.06c0,.38-.17,.57-.51,.57h-3.93c-.35,0-.52-.19-.52-.57V.88c0-.39,.17-.58,.52-.58h5.4c.75,0,1.46,.14,2.11,.42s1.22,.66,1.71,1.15,.87,1.04,1.15,1.68,.42,1.31,.42,2.03v2.08c0,.73-.15,1.36-.46,1.89s-.69,.99-1.16,1.38c.55,.55,.96,1.26,1.22,2.13s.39,1.94,.39,3.23v2.46Zm-6.35-13.94v4.04h.55c.24,0,.44-.07,.59-.21s.23-.32,.23-.55v-2.51c0-.26-.08-.45-.25-.58s-.36-.19-.59-.19h-.54Z"/><path class="cls-3" d="M29.81,5.11c0-.83,.15-1.56,.46-2.19s.72-1.17,1.24-1.6,1.12-.76,1.79-.98,1.39-.33,2.13-.33,1.47,.11,2.16,.33,1.29,.55,1.81,.97,.93,.96,1.24,1.59,.46,1.37,.46,2.21V14.62c0,.84-.15,1.57-.46,2.21s-.72,1.17-1.24,1.6-1.12,.76-1.8,.98-1.4,.33-2.15,.33-1.46-.12-2.14-.35-1.28-.56-1.8-1-.93-.97-1.24-1.61-.46-1.36-.46-2.17V5.11Zm4.97,9.22c0,.23,.04,.44,.12,.64s.26,.29,.54,.29,.47-.08,.56-.23,.13-.35,.13-.58V5.41c0-.11,0-.22-.03-.33s-.05-.21-.1-.3-.12-.17-.2-.22-.19-.08-.33-.08c-.27,0-.45,.1-.55,.3s-.14,.41-.14,.64V14.33Z"/><path class="cls-3" d="M47.24,14.66c.02,.11,.06,.21,.11,.3s.13,.16,.22,.21,.21,.08,.35,.08c.17,0,.3-.03,.39-.08s.17-.13,.22-.21,.08-.19,.1-.3,.02-.22,.02-.33v-1.96c0-.21,.03-.36,.08-.43s.17-.12,.36-.12h3.69c.19,0,.33,.03,.4,.1s.11,.2,.11,.41v2.29c0,.83-.14,1.56-.42,2.2s-.66,1.18-1.15,1.61-1.06,.76-1.72,.98-1.36,.33-2.12,.33-1.46-.11-2.14-.33-1.28-.55-1.8-.98-.93-.97-1.24-1.61-.46-1.37-.46-2.2V5.11c0-.74,.14-1.41,.41-2.04s.66-1.16,1.16-1.62,1.09-.81,1.78-1.07,1.45-.39,2.28-.39c.97,0,1.79,.15,2.46,.46s1.23,.71,1.65,1.2,.73,1.05,.92,1.67,.29,1.25,.29,1.88v1.56c0,.23-.03,.4-.1,.5s-.2,.15-.4,.15h-3.67c-.17,0-.29-.05-.36-.14s-.1-.23-.1-.43v-1.49c0-.09,0-.19-.03-.29s-.05-.2-.1-.29-.12-.17-.21-.23-.2-.09-.32-.09c-.24,0-.42,.09-.53,.26s-.17,.37-.17,.59V14.33c0,.11,0,.22,.03,.33Z"/><path class="cls-3" d="M54.55,.88c0-.39,.17-.58,.52-.58h3.93c.34,0,.51,.19,.51,.58V7.33c.29-.12,.52-.29,.7-.5s.32-.46,.42-.75,.17-.61,.21-.96,.06-.73,.06-1.14V1.02c0-.24,.08-.42,.23-.54s.34-.18,.54-.18h3.63c.21,0,.36,.08,.44,.23s.12,.3,.12,.43v3.63c0,1.08-.18,2.04-.54,2.89s-.86,1.59-1.49,2.23c.73,.64,1.29,1.42,1.7,2.33s.61,1.93,.61,3.09v3.63c0,.14-.04,.28-.12,.43s-.23,.23-.44,.23h-3.64c-.19,0-.37-.06-.52-.18s-.23-.3-.23-.54v-2.97c0-.44-.02-.85-.07-1.22s-.13-.71-.26-1-.29-.55-.51-.75-.49-.36-.84-.46v6.56c0,.38-.17,.57-.51,.57h-3.93c-.35,0-.52-.19-.52-.57V.88Z"/><path class="cls-3" d="M78.77,14.33c0,.23,.04,.44,.12,.64s.27,.29,.57,.29c.15,0,.26-.03,.35-.08s.15-.13,.2-.21,.08-.19,.09-.3,.02-.22,.02-.33V.88c0-.16,.05-.29,.14-.41s.21-.17,.35-.17h4c.16,0,.28,.06,.36,.18s.12,.25,.12,.4V14.62c0,.71-.12,1.38-.35,2s-.57,1.17-1.02,1.63-1.01,.82-1.68,1.09-1.45,.4-2.33,.4c-.77,0-1.43-.14-1.96-.41s-.97-.66-1.3-1.15c-.35,.49-.8,.87-1.35,1.15s-1.21,.41-1.98,.41c-.94,0-1.76-.13-2.46-.4s-1.29-.63-1.76-1.09-.82-1-1.06-1.63-.35-1.29-.35-2V.88c0-.15,.04-.28,.11-.4s.16-.18,.26-.18h4.16c.18,0,.3,.06,.36,.17s.08,.25,.08,.41V14.33c0,.23,.04,.44,.13,.64s.26,.29,.52,.29c.29,0,.47-.1,.56-.29s.13-.4,.13-.64V.88c0-.15,.04-.28,.12-.4s.17-.18,.27-.18h4.16c.18,0,.3,.06,.35,.17s.08,.25,.08,.41V14.33Z"/><path class="cls-3" d="M86.57,.88c0-.39,.17-.58,.52-.58h9.18c.27,0,.4,.19,.4,.58v3.35c0,.38-.13,.57-.4,.57h-4.73v2.82h3.71c.15,0,.26,.05,.35,.14s.13,.23,.13,.43v3.35c0,.37-.16,.55-.48,.55h-3.71v2.86h4.85c.29,0,.43,.18,.43,.54v3.4c0,.36-.14,.54-.43,.54h-9.29c-.35,0-.52-.19-.52-.57V.88Z"/><path class="cls-3" d="M97.9,.88c0-.39,.17-.58,.52-.58h3.93c.34,0,.51,.19,.51,.58V14.95h4.36c.16,0,.26,.04,.32,.13s.08,.22,.08,.41v3.37c0,.18-.03,.32-.08,.42s-.16,.14-.32,.14h-8.81c-.35,0-.52-.19-.52-.57V.88Z"/><path class="cls-3" d="M108.81,.88c0-.39,.17-.58,.52-.58h3.93c.34,0,.51,.19,.51,.58V14.95h4.36c.16,0,.26,.04,.32,.13s.08,.22,.08,.41v3.37c0,.18-.03,.32-.08,.42s-.16,.14-.32,.14h-8.81c-.35,0-.52-.19-.52-.57V.88Z"/></g></g></g></svg>