<?xml version="1.0" encoding="UTF-8"?><svg id="Layer_2" xmlns="http://www.w3.org/2000/svg" viewBox="0 0 48.65 48.65"><defs><style>.cls-1{fill:#fff;}.cls-2{fill:#14763f;}</style></defs><g id="Layer_1-2"><rect class="cls-2" x="0" y="0" width="48.65" height="48.65" rx="24.32" ry="24.32"/><g><path class="cls-1" d="M24.3,8.86c8.53,0,15.47,6.94,15.47,15.47s-6.94,15.47-15.47,15.47-15.47-6.94-15.47-15.47,6.94-15.47,15.47-15.47m0-.77c-8.97,0-16.24,7.27-16.24,16.24s7.27,16.24,16.24,16.24,16.24-7.27,16.24-16.24-7.27-16.24-16.24-16.24h0Z"/><path class="cls-1" d="M24.3,11.49c7.08,0,12.84,5.76,12.84,12.84s-5.76,12.84-12.84,12.84-12.84-5.76-12.84-12.84,5.76-12.84,12.84-12.84m0-.82c-7.54,0-13.65,6.11-13.65,13.65s6.11,13.65,13.65,13.65,13.65-6.11,13.65-13.65-6.11-13.65-13.65-13.65h0Z"/><path class="cls-1" d="M24.3,14.12c5.63,0,10.2,4.58,10.2,10.2s-4.58,10.2-10.2,10.2-10.2-4.58-10.2-10.2,4.58-10.2,10.2-10.2m0-.86c-6.11,0-11.07,4.96-11.07,11.07s4.96,11.07,11.07,11.07,11.07-4.96,11.07-11.07-4.96-11.07-11.07-11.07h0Z"/><path class="cls-1" d="M24.3,16.75c4.18,0,7.57,3.4,7.57,7.57s-3.4,7.57-7.57,7.57-7.57-3.4-7.57-7.57,3.4-7.57,7.57-7.57m0-.91c-4.68,0-8.48,3.8-8.48,8.48s3.8,8.48,8.48,8.48,8.48-3.8,8.48-8.48-3.8-8.48-8.48-8.48h0Z"/><path class="cls-1" d="M24.3,19.38c2.72,0,4.94,2.22,4.94,4.94s-2.22,4.94-4.94,4.94-4.94-2.22-4.94-4.94,2.22-4.94,4.94-4.94m0-.96c-3.26,0-5.9,2.64-5.9,5.9s2.64,5.9,5.9,5.9,5.9-2.64,5.9-5.9-2.64-5.9-5.9-5.9h0Z"/></g></g></svg>